<?xml version="1.0" encoding="utf-8"?>
<!-- Generator: Adobe Illustrator 17.0.0, SVG Export Plug-In . SVG Version: 6.00 Build 0)  -->
<!DOCTYPE svg PUBLIC "-//W3C//DTD SVG 1.1//EN" "http://www.w3.org/Graphics/SVG/1.1/DTD/svg11.dtd">
<svg version="1.1" id="icons" xmlns="http://www.w3.org/2000/svg" xmlns:xlink="http://www.w3.org/1999/xlink" x="0px" y="0px"
	 width="20px" height="20px" viewBox="0 0 20 20" enable-background="new 0 0 20 20" xml:space="preserve">
<g>
	<path fill="none" stroke="#A7ABB2" stroke-miterlimit="10" d="M13.864,14.8c0,0.66-0.348,1.2-0.773,1.2H2.273
		C1.848,16,1.5,15.46,1.5,14.8V5.2C1.5,4.54,1.848,4,2.273,4h10.818c0.425,0,0.773,0.54,0.773,1.2
		C13.864,5.2,13.864,14.8,13.864,14.8z"/>
	<line fill="none" stroke="#A7ABB2" stroke-linecap="round" stroke-miterlimit="10" x1="3.818" y1="7.6" x2="11.545" y2="7.6"/>
	<path fill="none" stroke="#A7ABB2" stroke-linecap="round" stroke-linejoin="round" stroke-miterlimit="10" d="M13.864,11.8
		l3.923,2.538C18.179,14.592,18.5,14.26,18.5,13.6V6.4c0-0.66-0.321-0.992-0.713-0.738L13.864,8.2"/>
</g>
</svg>
