<?xml version="1.0" encoding="utf-8"?>
<!-- Generator: Adobe Illustrator 17.0.0, SVG Export Plug-In . SVG Version: 6.00 Build 0)  -->
<!DOCTYPE svg PUBLIC "-//W3C//DTD SVG 1.1//EN" "http://www.w3.org/Graphics/SVG/1.1/DTD/svg11.dtd">
<svg version="1.1" id="icons" xmlns="http://www.w3.org/2000/svg" xmlns:xlink="http://www.w3.org/1999/xlink" x="0px" y="0px"
	 width="171px" height="60px" viewBox="0 0 171 60" enable-background="new 0 0 171 60" xml:space="preserve">
<g>
	<path fill="none" stroke="#00CC99" stroke-linecap="round" stroke-linejoin="round" stroke-miterlimit="10" d="M33.357,18.333
		H21.929c-2.524,0-4.571,2.047-4.571,4.571v4.571c0,2.525,2.047,4.571,4.571,4.571h1.714v4.571l4.571-4.571h5.143
		c2.525,0,4.571-2.046,4.571-4.571v-4.571C37.929,20.38,35.882,18.333,33.357,18.333z"/>
	<path fill="none" stroke="#00CC99" stroke-linecap="round" stroke-linejoin="round" stroke-miterlimit="10" d="M29.929,36.048
		c0,1.578,1.279,2.857,2.857,2.857h2.857l3.429,3.429v-3.429h1.714c1.578,0,2.857-1.279,2.857-2.857v-2.286
		c0-1.578-1.279-2.857-2.857-2.857"/>
</g>
<g enable-background="new    ">
	<path fill="#666B73" d="M56.479,35.405l0.579-0.71c0.579,0.729,1.644,1.326,2.913,1.326c1.513,0,2.41-0.784,2.41-1.83
		c0-2.466-5.697-1.064-5.697-4.315c0-1.382,1.177-2.503,3.213-2.503c1.55,0,2.577,0.598,3.231,1.326l-0.542,0.691
		c-0.523-0.71-1.494-1.195-2.689-1.195c-1.401,0-2.241,0.709-2.241,1.644c0,2.26,5.678,0.877,5.678,4.352
		c0,1.457-1.121,2.652-3.381,2.652C58.496,36.844,57.375,36.414,56.479,35.405z"/>
	<path fill="#666B73" d="M65.571,25.431c0-0.411,0.355-0.729,0.747-0.729c0.411,0,0.747,0.317,0.747,0.729s-0.336,0.747-0.747,0.747
		C65.926,26.178,65.571,25.842,65.571,25.431z M65.832,36.619v-9.021h0.971v9.021H65.832z"/>
	<path fill="#666B73" d="M80.566,36.619v-6.313c0-1.271-0.542-2.055-1.812-2.055c-0.971,0-2.073,0.71-2.578,1.531v6.836h-0.99
		v-6.313c0-1.271-0.523-2.055-1.793-2.055c-0.971,0-2.055,0.729-2.596,1.55v6.818h-0.971v-9.021h0.971v1.363
		c0.374-0.579,1.606-1.588,2.914-1.588c1.401,0,2.148,0.822,2.372,1.7c0.504-0.841,1.718-1.7,2.988-1.7
		c1.662,0,2.465,0.934,2.465,2.745v6.5H80.566z"/>
	<path fill="#666B73" d="M85.528,35.162v4.894h-0.971V27.598h0.971v1.419c0.635-0.915,1.792-1.644,3.138-1.644
		c2.409,0,4.033,1.83,4.033,4.726c0,2.876-1.624,4.744-4.033,4.744C87.396,36.844,86.256,36.189,85.528,35.162z M91.654,32.1
		c0-2.186-1.14-3.848-3.156-3.848c-1.252,0-2.447,0.747-2.97,1.606v4.464c0.523,0.858,1.718,1.644,2.97,1.644
		C90.515,35.966,91.654,34.284,91.654,32.1z"/>
	<path fill="#666B73" d="M95.143,36.619V24.162h0.971v12.458H95.143z"/>
	<path fill="#666B73" d="M98.708,39.253c0.205,0.093,0.56,0.149,0.784,0.149c0.598,0,1.009-0.243,1.382-1.103l0.71-1.606
		l-3.828-9.095h1.082l3.287,7.881l3.25-7.881h1.103l-4.669,11c-0.486,1.14-1.252,1.681-2.298,1.681c-0.317,0-0.729-0.056-0.972-0.13
		L98.708,39.253z"/>
</g>
<g enable-background="new    ">
	<path fill="#BEC3CC" d="M107.332,35.405l0.58-0.71c0.578,0.729,1.643,1.326,2.912,1.326c1.514,0,2.41-0.784,2.41-1.83
		c0-2.466-5.697-1.064-5.697-4.315c0-1.382,1.178-2.503,3.213-2.503c1.551,0,2.578,0.598,3.231,1.326l-0.542,0.691
		c-0.523-0.71-1.494-1.195-2.689-1.195c-1.4,0-2.24,0.709-2.24,1.644c0,2.26,5.678,0.877,5.678,4.352
		c0,1.457-1.121,2.652-3.381,2.652C109.35,36.844,108.229,36.414,107.332,35.405z"/>
	<path fill="#BEC3CC" d="M116.182,32.1c0-2.634,1.682-4.726,4.314-4.726c2.671,0,4.352,2.092,4.352,4.726
		c0,2.633-1.681,4.744-4.352,4.744C117.863,36.844,116.182,34.732,116.182,32.1z M123.803,32.1c0-2-1.178-3.848-3.307-3.848
		c-2.092,0-3.287,1.849-3.287,3.848c0,2.017,1.195,3.866,3.287,3.866C122.625,35.966,123.803,34.116,123.803,32.1z"/>
	<path fill="#BEC3CC" d="M126.842,32.1c0-2.634,1.719-4.726,4.371-4.726c1.568,0,2.465,0.616,3.193,1.531l-0.672,0.598
		c-0.654-0.896-1.477-1.251-2.466-1.251c-2.11,0-3.399,1.681-3.399,3.848c0,2.166,1.289,3.866,3.399,3.866
		c0.989,0,1.812-0.374,2.466-1.271l0.672,0.598c-0.729,0.934-1.625,1.551-3.193,1.551C128.561,36.844,126.842,34.732,126.842,32.1z"
		/>
	<path fill="#BEC3CC" d="M136.308,25.431c0-0.411,0.354-0.729,0.747-0.729c0.41,0,0.747,0.317,0.747,0.729s-0.337,0.747-0.747,0.747
		C136.662,26.178,136.308,25.842,136.308,25.431z M136.568,36.619v-9.021h0.972v9.021H136.568z"/>
	<path fill="#BEC3CC" d="M146.297,36.619v-1.064c-0.803,0.878-1.811,1.289-3.062,1.289c-1.551,0-3.156-1.065-3.156-3.008
		c0-1.961,1.588-2.988,3.156-2.988c1.252,0,2.279,0.411,3.062,1.289v-1.831c0-1.345-1.082-2.073-2.408-2.073
		c-1.141,0-2.018,0.392-2.84,1.326l-0.541-0.673c0.934-1.008,1.979-1.513,3.474-1.513c1.831,0,3.287,0.878,3.287,2.896v6.35H146.297
		z M146.297,34.845v-1.979c-0.635-0.841-1.643-1.252-2.727-1.252c-1.475,0-2.465,0.953-2.465,2.242c0,1.27,0.99,2.222,2.465,2.222
		C144.654,36.077,145.662,35.667,146.297,34.845z"/>
	<path fill="#BEC3CC" d="M150.291,36.619V24.162h0.971v12.458H150.291z"/>
</g>
</svg>
