<?xml version="1.0" encoding="utf-8"?>
<!-- Generator: Adobe Illustrator 17.0.0, SVG Export Plug-In . SVG Version: 6.00 Build 0)  -->
<!DOCTYPE svg PUBLIC "-//W3C//DTD SVG 1.1//EN" "http://www.w3.org/Graphics/SVG/1.1/DTD/svg11.dtd">
<svg version="1.1" id="icons" xmlns="http://www.w3.org/2000/svg" xmlns:xlink="http://www.w3.org/1999/xlink" x="0px" y="0px"
	 width="171px" height="60px" viewBox="0 0 171 60" enable-background="new 0 0 171 60" xml:space="preserve">
<g>
	<path fill="none" stroke="#00CC99" stroke-linecap="round" stroke-linejoin="round" stroke-miterlimit="10" d="M33.357,18.333
		H21.929c-2.524,0-4.571,2.047-4.571,4.571v4.571c0,2.525,2.047,4.571,4.571,4.571h1.714v4.571l4.571-4.571h5.143
		c2.525,0,4.571-2.046,4.571-4.571v-4.571C37.929,20.38,35.882,18.333,33.357,18.333z"/>
	<path fill="none" stroke="#00CC99" stroke-linecap="round" stroke-linejoin="round" stroke-miterlimit="10" d="M29.929,36.048
		c0,1.578,1.279,2.857,2.857,2.857h2.857l3.429,3.429v-3.429h1.714c1.578,0,2.857-1.279,2.857-2.857v-2.286
		c0-1.578-1.279-2.857-2.857-2.857"/>
</g>
<text transform="matrix(1 0 0 1 55.75 36.6188)"><tspan x="0" y="0" fill="#666B73" font-family="'ProximaNova-Light'" font-size="18.6694">simply</tspan><tspan x="50.854" y="0" fill="#BEC3CC" font-family="'ProximaNova-Light'" font-size="18.6694">social</tspan></text>
</svg>
